<svg width="512" height="512" viewBox="0 0 512 512" fill="none" xmlns="http://www.w3.org/2000/svg">
  <defs>
    <linearGradient id="grad1" x1="0%" y1="0%" x2="100%" y2="100%">
      <stop offset="0%" style="stop-color:#6366f1;stop-opacity:1" />
      <stop offset="100%" style="stop-color:#a855f7;stop-opacity:1" />
    </linearGradient>
    <filter id="shadow" x="-20%" y="-20%" width="140%" height="140%">
      <feGaussianBlur in="SourceAlpha" stdDeviation="15" result="blur" />
      <feOffset dx="0" dy="10" result="offsetBlur" />
      <feMerge>
        <feMergeNode in="offsetBlur" />
        <feMergeNode in="SourceGraphic" />
      </feMerge>
    </filter>
  </defs>
  <!-- Background -->
  <rect width="512" height="512" rx="128" fill="url(#grad1)" />
  
  <!-- Icon Logic: Graduation Cap + Sound waves -->
  <g filter="url(#shadow)">
    <!-- Cap -->
    <path d="M256 120L100 200L256 280L412 200L256 120Z" fill="white" />
    <path d="M140 220V320C140 320 180 350 256 350C332 350 372 320 372 320V220L256 280L140 220Z" fill="#f3f4f6" />
    <!-- Sound Waves / AI Signal -->
    <circle cx="256" cy="220" r="10" fill="#6366f1" />
    <path d="M280 180C295 190 305 205 305 220C305 235 295 250 280 260" stroke="white" stroke-width="8" stroke-linecap="round" />
    <path d="M232 180C217 190 207 205 207 220C207 235 217 250 232 260" stroke="white" stroke-width="8" stroke-linecap="round" />
    <path d="M310 160C330 175 345 195 345 220C345 245 330 265 310 280" stroke="white" stroke-width="8" stroke-opacity="0.6" stroke-linecap="round" />
    <path d="M202 160C182 175 167 195 167 220C167 245 182 265 202 280" stroke="white" stroke-width="8" stroke-opacity="0.6" stroke-linecap="round" />
  </g>
</svg>
